<svg xmlns="http://www.w3.org/2000/svg" xmlns:xlink="http://www.w3.org/1999/xlink" width="500" zoomAndPan="magnify" viewBox="0 0 375 374.999991" height="500" preserveAspectRatio="xMidYMid meet" version="1.0"><defs><clipPath id="adc07916ba"><path d="M 32.25 0 L 342.75 0 C 360.5625 0 375 14.4375 375 32.25 L 375 342.75 C 375 360.5625 360.5625 375 342.75 375 L 32.25 375 C 14.4375 375 0 360.5625 0 342.75 L 0 32.25 C 0 14.4375 14.4375 0 32.25 0 Z M 32.25 0 " clip-rule="nonzero"/></clipPath><clipPath id="158b26651e"><path d="M 99 81.550781 L 208 81.550781 L 208 232 L 99 232 Z M 99 81.550781 " clip-rule="nonzero"/></clipPath></defs><g clip-path="url(#adc07916ba)"><rect x="-37.5" width="450" fill="#1c1c1c" y="-37.499999" height="449.999989" fill-opacity="1"/></g><path fill="#92c730" d="M 262.78125 254.152344 C 241.398438 289.074219 215.203125 293.726562 190.355469 283.242188 C 190.496094 278.199219 190.886719 272.765625 191.628906 267.042969 C 196.480469 229.523438 244.203125 167.261719 244.773438 166.515625 C 244.195312 167 195.867188 207.339844 179.535156 257.746094 C 177.464844 264.140625 176.078125 269.859375 175.242188 274.984375 C 149.359375 257.5625 137.113281 230.359375 160.902344 191.503906 C 185.691406 151.011719 268.367188 130.503906 268.367188 130.503906 C 268.367188 130.503906 287.570312 213.660156 262.78125 254.152344 Z M 262.78125 254.152344 " fill-opacity="1" fill-rule="nonzero"/><g clip-path="url(#158b26651e)"><path fill="#78a831" d="M 207.753906 144.367188 C 189.535156 153.011719 170.871094 164.5 159.191406 178.808594 C 141.75 151.472656 126.9375 122.191406 126.585938 121.339844 C 126.738281 122.238281 134.339844 154.808594 152.785156 188.179688 C 143.25 204.589844 140.21875 218.878906 141.945312 231.1875 C 129.730469 226.945312 118.269531 216.804688 108.550781 198.679688 C 87.328125 159.101562 109.953125 81.628906 109.953125 81.628906 C 109.953125 81.628906 186.015625 105.203125 207.753906 144.367188 Z M 207.753906 144.367188 " fill-opacity="1" fill-rule="nonzero"/></g></svg>