<svg xmlns="http://www.w3.org/2000/svg" xmlns:xlink="http://www.w3.org/1999/xlink" width="500" zoomAndPan="magnify" viewBox="0 0 375 374.999991" height="500" preserveAspectRatio="xMidYMid meet" version="1.0"><defs><clipPath id="be01612df1"><path d="M -21.386719 -41.71875 L 396.386719 -41.71875 C 414.199219 -41.71875 428.636719 -27.277344 428.636719 -9.46875 L 428.636719 384.46875 C 428.636719 402.277344 414.199219 416.71875 396.386719 416.71875 L -21.386719 416.71875 C -39.199219 416.71875 -53.636719 402.277344 -53.636719 384.46875 L -53.636719 -9.46875 C -53.636719 -27.277344 -39.199219 -41.71875 -21.386719 -41.71875 Z M -21.386719 -41.71875 " clip-rule="nonzero"/></clipPath><clipPath id="117b32ef08"><path d="M 34 3.054688 L 223 3.054688 L 223 264 L 34 264 Z M 34 3.054688 " clip-rule="nonzero"/></clipPath></defs><rect x="-37.5" width="450" fill="#ffffff" y="-37.499999" height="449.999989" fill-opacity="1"/><rect x="-37.5" width="450" fill="#ffffff" y="-37.499999" height="449.999989" fill-opacity="1"/><g clip-path="url(#be01612df1)"><rect x="-37.5" width="450" fill="#1c1c1c" y="-37.499999" height="449.999989" fill-opacity="1"/></g><path fill="#92c730" d="M 318.675781 303.128906 C 281.441406 363.847656 235.816406 371.929688 192.542969 353.703125 C 192.792969 344.941406 193.472656 335.492188 194.761719 325.542969 C 203.214844 260.3125 286.324219 152.0625 287.316406 150.773438 C 286.308594 151.609375 202.144531 221.746094 173.699219 309.378906 C 170.09375 320.496094 167.679688 330.441406 166.226562 339.347656 C 121.148438 309.058594 99.820312 261.761719 141.246094 194.210938 C 184.421875 123.8125 328.40625 88.15625 328.40625 88.15625 C 328.40625 88.15625 361.851562 232.730469 318.675781 303.128906 Z M 318.675781 303.128906 " fill-opacity="1" fill-rule="nonzero"/><g clip-path="url(#117b32ef08)"><path fill="#78a831" d="M 222.84375 112.265625 C 191.113281 127.289062 158.613281 147.265625 138.269531 172.140625 C 107.898438 124.617188 82.097656 73.710938 81.488281 72.230469 C 81.75 73.792969 94.988281 130.417969 127.113281 188.4375 C 110.507812 216.96875 105.226562 241.804688 108.234375 263.203125 C 86.964844 255.832031 67.003906 238.203125 50.078125 206.691406 C 13.117188 137.882812 52.515625 3.191406 52.515625 3.191406 C 52.515625 3.191406 184.988281 44.171875 222.84375 112.265625 Z M 222.84375 112.265625 " fill-opacity="1" fill-rule="nonzero"/></g></svg>